# xmcd
# 
# Track frame offsets:
#     150
#     11400
#     24274
#     34965
#     46557
#     58367
#     70437
#     82702
#     95953
#     109484
#     121580
#     133497
#     145705
#     158072
#     171474
#     184368
#     196544
#     210675
#     223132
#     235878
#     248825
#     263227
#     276652
#     289440
#     303335
#     316656
#     328851
# 
# Disc length: 4558
# 
# Revision: 2
# Processed by: cddbd v1.5.2PL0 Copyright (c) Steve Scherf et al.
# Submitted via: fre:ac v1.0.17
# 
DISCID=9c11cc1b
DTITLE=Bix Beiderbecke - The Complete Wolverines - 1924-1928 - Off the Record
DYEAR=1924
DGENRE=Jazz
TTITLE0=Fidgety Feet (Wolverine Orchestra)
TTITLE1=Jazz Me Blues (Wolverine Orchestra)
TTITLE2=Oh Baby (Wolverine Orchestra)
TTITLE3=Copenhagen (Wolverine Orchestra)
TTITLE4=Riverboat Shuffle (Wolverine Orchestra)
TTITLE5=Susie [take a] (Wolverine Orchestra)
TTITLE6=Susie [take b] (Wolverine Orchestra)
TTITLE7=I Need Some Pettin' (Wolverine Orchestra)
TTITLE8=Royal Garden Blues (Wolverine Orchestra)
TTITLE9=Tiger Rag (Wolverine Orchestra)
TTITLE10=Sensation (Wolverine Orchestra)
TTITLE11=Lazy Daddy [take a] (Wolverine Orchestra) (Bix on piano)
TTITLE12=Lazy Daddy [take b] (Wolverine Orchestra) (Bix on piano)
TTITLE13=Tia Juana (Wolverine Orchestra)
TTITLE14=Big Boy (Wolverine Orchestra)
TTITLE15=Flock O' Blues (Sioux City Six) (with Miff Mole and Frank Trumbauer)
TTITLE16=I'm Glad (Sioux City Six) (with Miff Mole and Frank Trumbauer)
TTITLE17=Toddlin' Blues (Bix and His Rhythm Jugglers) (with Tommy Dorsey)
TTITLE18=Davenport Blues (Bix and His Rhythm Jugglers) (with Tommy Dorsey)
TTITLE19=When My Sugar Walks Down The Street (Wolverine Orchestra) (no Bix) (with Jimmy McPartland)
TTITLE20=Prince of Wails (Wolverine Orchestra) (no Bix) (with Jimmy McPartland)
TTITLE21=Royal Garden Blues (The Original Wolverines) (no Bix) (with Jimmy McPartland)
TTITLE22=Shim-Me-Sha-Wabble (The Original Wolverines) (no Bix) (with Jimmy McPartland)
TTITLE23=A Good Man Is Hard To Find (The Original Wolverines) (no Bix) (with Jimmy McPartland)
TTITLE24=The New Twister (The Original Wolverines) (no Bix) (with Jimmy McPartland)
TTITLE25=Limehouse Blues (The Original Wolverines) (no Bix)
TTITLE26=Dear Old Southland (The Original Wolverines) (no Bix)
EXTD=YEAR: 1924
EXTT0=
EXTT1=
EXTT2=
EXTT3=
EXTT4=
EXTT5=
EXTT6=
EXTT7=
EXTT8=
EXTT9=
EXTT10=
EXTT11=
EXTT12=
EXTT13=
EXTT14=
EXTT15=
EXTT16=
EXTT17=
EXTT18=
EXTT19=
EXTT20=
EXTT21=
EXTT22=
EXTT23=
EXTT24=
EXTT25=
EXTT26=
PLAYORDER=
